<svg width="496" height="496" viewBox="0 0 496 496" fill="none" xmlns="http://www.w3.org/2000/svg">
<path fill-rule="evenodd" clip-rule="evenodd" d="M496 248C496 384.967 384.967 496 248 496C111.033 496 0 384.967 0 248C0 111.033 111.033 0 248 0C384.967 0 496 111.033 496 248ZM290.191 293.721C299.542 292.265 308.627 290.827 317.654 289.399C319.448 289.115 321.24 288.832 323.032 288.549L325.425 288.17C327.605 287.826 329.788 287.496 332.144 287.14L332.146 287.14C333.282 286.968 334.459 286.79 335.696 286.602C335.021 297.068 332.442 306.613 329.853 316.093C323.621 338.915 314.618 360.644 303.327 381.439C302.102 383.694 300.601 384.404 298.184 384.396C278.357 384.334 258.53 384.31 238.703 384.403C235.659 384.417 233.607 383.154 232.044 380.814C224.443 369.435 220.44 356.634 217.78 343.404C215.614 332.625 215.353 321.659 215.607 310.675C215.677 307.682 216.023 306.056 219.755 305.486C237.2 302.817 254.61 299.913 272.019 297.009L272.02 297.009L272.022 297.008L272.026 297.008C276.972 296.183 281.917 295.358 286.864 294.538C287.38 294.453 287.888 294.313 288.459 294.156L288.46 294.156L288.46 294.156C288.97 294.016 289.529 293.862 290.191 293.721ZM318.488 259.608C315.828 249.044 317.532 238.894 321.671 228.628C325.549 219.833 330.749 212.249 336.284 204.882C334.284 203.395 332.547 203.549 330.924 203.694L330.922 203.694C330.763 203.708 330.606 203.722 330.449 203.735C323.814 204.259 317.18 204.801 310.547 205.344C296.896 206.459 283.245 207.575 269.583 208.537C266.319 208.767 264.633 209.748 263.088 212.619C253.086 231.204 246.235 250.879 242.946 271.682C242.834 272.385 242.717 273.091 242.6 273.8L242.599 273.804L242.599 273.804C241.619 279.724 240.602 285.865 242.536 292.553L328.575 277.438C328.109 276.781 327.649 276.136 327.196 275.502L327.187 275.489C323.295 270.041 319.929 265.328 318.488 259.608ZM235.852 206.249C233.277 206.308 231.129 206.308 228.976 206.308C228.199 205.24 228.586 204.242 228.956 203.285C228.993 203.191 229.029 203.097 229.064 203.003C235.303 186.382 242.115 170.017 250.286 154.226C254.87 145.367 260.114 136.939 265.656 128.672C266.613 127.245 267.652 125.795 269.459 125.782C277.488 125.725 285.518 125.732 293.708 125.739C296.484 125.742 299.277 125.744 302.096 125.744C299.202 143.974 297.38 161.556 297.398 179.274C297.402 183.56 297.882 187.86 298.375 192.127C298.881 196.511 296.645 197.886 292.728 198.381C277.736 200.277 262.757 202.28 247.779 204.283L247.777 204.283C244.574 204.711 241.371 205.14 238.168 205.567C237.814 205.614 237.469 205.733 237.056 205.876C236.715 205.993 236.328 206.127 235.852 206.249ZM209.335 269.736C209.186 258.168 209.037 246.55 210.339 234.806C210.397 226.779 210.34 218.809 210.283 210.876C210.176 196.034 210.07 181.315 210.723 166.566C209.574 166.967 209.017 167.381 208.807 167.928C203.471 181.872 198.142 195.818 192.813 209.765C184.35 231.911 175.887 254.057 167.397 276.194C166.373 278.864 167.585 279.664 169.77 280.532C174.982 282.603 180.176 284.718 185.37 286.833C190.765 289.029 196.16 291.226 201.574 293.373C202.135 293.595 202.687 293.878 203.245 294.162C205 295.059 206.807 295.982 209.088 295.156C209.554 286.689 209.445 278.226 209.335 269.736Z" fill="#fff"/>
</svg>
